<?xml version="1.0" standalone="no"?>
<!DOCTYPE svg PUBLIC "-//W3C//DTD SVG 20010904//EN"
 "http://www.w3.org/TR/2001/REC-SVG-20010904/DTD/svg10.dtd">
<svg version="1.0" xmlns="http://www.w3.org/2000/svg"
 width="543.000000pt" height="459.000000pt" viewBox="0 0 543.000000 459.000000"
 preserveAspectRatio="xMidYMid meet">
<metadata>
Created by potrace 1.16, written by Peter Selinger 2001-2019
</metadata>
<g transform="translate(0.000000,459.000000) scale(0.100000,-0.100000)"
fill="#000000" stroke="none">
<path d="M2310 4533 c-32 -11 -40 -37 -40 -130 0 -80 3 -96 20 -113 11 -11 25
-20 30 -20 19 0 10 -29 -12 -41 -35 -18 -38 -27 -38 -126 0 -80 3 -96 20 -113
11 -11 25 -20 30 -20 20 0 9 -27 -20 -48 -30 -22 -30 -23 -30 -122 0 -91 2
-100 22 -114 19 -14 76 -16 413 -16 322 0 395 3 411 14 16 12 20 29 23 105 3
96 -11 141 -44 141 -23 0 -18 38 6 45 29 9 39 45 39 133 0 80 -16 122 -46 122
-24 0 -16 30 16 60 29 27 30 31 30 114 0 79 -2 89 -25 111 l-24 25 -383 -1
c-211 0 -390 -3 -398 -6z m785 -128 l0 -90 -390 0 -390 0 -3 79 c-2 44 -1 85
2 93 5 11 75 13 393 11 l388 -3 0 -90z m-57 -152 c-3 -17 -27 -18 -338 -18
-311 0 -335 1 -338 18 -3 16 18 17 338 17 320 0 341 -1 338 -17z m57 -148 l0
-90 -392 -3 -393 -2 0 88 c0 49 3 92 7 95 4 4 180 6 392 5 l386 -3 0 -90z
m-55 -155 c0 -20 -5 -20 -337 -18 -313 3 -338 4 -341 21 -3 16 18 17 337 17
335 0 341 0 341 -20z m48 -59 c9 -5 12 -31 10 -92 l-3 -84 -392 -3 -393 -2 0
88 c0 49 3 92 7 95 9 10 756 8 771 -2z"/>
<path d="M1048 3909 c-17 -9 -18 -36 -18 -327 0 -234 3 -321 12 -330 17 -17
879 -17 896 0 9 9 12 96 12 330 0 303 -1 318 -19 328 -27 14 -859 13 -883 -1z
m882 -64 l0 -55 -445 0 -445 0 0 39 c0 77 -38 71 451 71 l439 0 0 -55z m0
-315 l0 -240 -445 0 -445 0 0 233 c0 129 3 237 7 240 3 4 204 7 445 7 l438 0
0 -240z m-5 -270 c-4 -6 -160 -10 -435 -10 -275 0 -431 4 -435 10 -4 7 143 10
435 10 292 0 439 -3 435 -10z"/>
<path d="M1491 3592 c-27 -54 -59 -121 -72 -151 -22 -52 -22 -54 -4 -67 10 -7
22 -11 27 -8 16 10 149 286 144 299 -2 7 -14 15 -25 18 -19 5 -28 -7 -70 -91z"/>
<path d="M1262 3587 c-34 -34 -62 -67 -62 -72 0 -12 112 -125 124 -125 5 0 18
8 28 17 18 16 17 18 -29 65 l-47 48 47 48 c46 47 47 49 29 65 -10 9 -21 17
-23 17 -3 0 -33 -28 -67 -63z"/>
<path d="M1627 3633 c-16 -16 -14 -20 30 -65 l47 -48 -47 -48 c-46 -47 -47
-49 -29 -65 10 -9 23 -17 28 -17 13 0 124 113 124 126 0 10 -121 134 -131 134
-2 0 -12 -8 -22 -17z"/>
<path d="M3931 3878 c-47 -23 -96 -82 -106 -128 -5 -21 -17 -35 -41 -46 -106
-51 -107 -202 0 -253 23 -12 54 -21 69 -21 26 0 27 -2 27 -59 0 -49 -4 -65
-24 -88 l-24 -28 -32 18 c-39 23 -76 16 -92 -18 -25 -56 54 -102 96 -56 10 11
30 24 45 31 42 17 61 58 61 134 l0 66 65 0 65 0 0 -133 c0 -121 -2 -136 -20
-152 -37 -34 -13 -95 37 -95 47 0 70 66 33 97 -18 16 -20 30 -20 150 l0 133
65 0 65 0 0 -103 c0 -91 -2 -106 -20 -122 -25 -23 -26 -57 -2 -78 39 -35 92
-10 92 43 0 16 -6 33 -14 37 -11 6 -15 35 -18 116 l-3 107 58 0 57 0 0 -59 c0
-49 4 -65 25 -90 14 -16 36 -33 48 -37 12 -4 28 -15 35 -25 17 -25 57 -24 82
1 24 24 25 38 4 68 -18 27 -60 29 -86 5 -36 -32 -78 19 -78 95 0 39 2 42 27
42 50 0 110 38 132 84 25 51 26 64 5 116 -18 45 -56 77 -103 86 -17 4 -31 10
-31 15 0 17 -40 49 -60 49 -12 0 -34 10 -51 22 -19 15 -45 23 -73 23 -29 1
-53 9 -77 27 -70 54 -144 63 -218 26z m177 -40 c18 -11 37 -28 42 -38 9 -16
18 -18 58 -13 41 4 52 2 77 -19 17 -14 36 -23 43 -20 18 6 52 -27 52 -50 0
-14 8 -18 35 -18 99 0 140 -120 64 -184 l-31 -26 -320 0 -320 0 -34 34 c-24
24 -34 43 -34 66 0 56 42 109 88 110 24 0 27 5 37 63 7 45 60 102 108 116 41
13 93 5 135 -21z"/>
<path d="M235 2705 l-25 -24 0 -251 0 -251 25 -24 c24 -25 27 -25 201 -25
l176 0 -7 -27 c-3 -16 -14 -41 -24 -58 -15 -27 -23 -30 -81 -35 -62 -5 -65 -6
-68 -33 -7 -56 -1 -57 257 -57 130 0 242 4 249 9 8 5 12 22 10 42 -3 33 -5 34
-48 37 -78 4 -86 9 -109 61 -11 27 -21 52 -21 55 0 3 80 6 178 6 243 0 222
-28 222 301 0 254 0 256 -23 277 -23 22 -25 22 -456 22 l-432 0 -24 -25z m897
-12 c16 -15 18 -36 18 -261 0 -214 -2 -248 -17 -264 -15 -17 -42 -18 -444 -18
l-428 0 -15 22 c-24 33 -24 483 0 516 l15 22 426 0 c383 0 428 -2 445 -17z
m-367 -615 c11 -29 21 -56 23 -60 2 -5 -42 -8 -97 -8 -56 0 -101 1 -101 3 0 1
9 20 20 42 11 22 20 47 20 57 0 15 9 18 58 18 l57 0 20 -52z m163 -110 l-3
-23 -235 0 -235 0 -3 23 -3 22 241 0 241 0 -3 -22z"/>
<path d="M264 2667 c-2 -7 -3 -118 -2 -247 l3 -235 428 -3 427 -2 0 250 0 250
-425 0 c-335 0 -427 -3 -431 -13z m136 -237 l0 -230 -60 0 -60 0 0 230 0 230
60 0 60 0 0 -230z m700 0 l0 -230 -340 0 -340 0 0 230 0 230 340 0 340 0 0
-230z"/>
<path d="M4427 2710 c-117 -37 -211 -120 -262 -232 -99 -216 -11 -460 203
-565 68 -34 85 -38 168 -41 139 -6 232 30 327 125 160 160 166 421 12 591
-111 123 -291 172 -448 122z m113 -100 l0 -91 -62 7 c-35 4 -66 8 -70 11 -9 5
9 46 38 92 21 31 69 71 87 71 4 0 7 -41 7 -90z m80 68 c37 -26 98 -125 84
-137 -5 -5 -37 -12 -71 -15 l-63 -7 0 91 c0 49 4 90 9 90 4 0 23 -10 41 -22z
m-302 -145 c39 -14 43 -18 37 -40 -5 -21 -24 -153 -25 -175 0 -5 -40 -8 -90
-8 -102 0 -100 -3 -76 85 23 87 72 169 96 159 8 -3 34 -13 58 -21z m580 -20
c31 -49 62 -139 62 -180 0 -22 -3 -23 -88 -23 l-88 0 -12 89 c-6 49 -14 95
-17 102 -3 9 13 21 48 35 28 12 55 22 58 23 4 0 20 -20 37 -46z m-390 -19 l32
-5 0 -89 0 -90 -91 0 -92 0 7 63 c4 34 12 79 17 100 11 41 4 40 127 21z m229
-40 c6 -27 12 -70 12 -96 l1 -48 -90 0 -90 0 0 90 0 89 33 5 c44 8 100 13 112
11 6 -1 15 -24 22 -51z m-403 -201 c6 -35 20 -143 21 -161 0 -8 -25 -22 -55
-33 -52 -18 -56 -18 -69 -2 -25 33 -69 138 -76 181 l-7 42 90 0 90 0 6 -27z
m206 -62 l0 -88 -72 -7 c-39 -3 -75 -3 -79 1 -7 9 -29 127 -29 161 0 21 4 22
90 22 l90 0 0 -89z m210 57 c0 -17 -5 -60 -11 -96 l-11 -64 -52 6 c-28 3 -63
6 -78 6 l-28 0 0 90 0 90 90 0 90 0 0 -32z m205 -15 c-7 -53 -42 -136 -71
-170 l-19 -23 -58 22 c-39 14 -56 26 -53 35 3 7 11 51 18 98 l12 85 89 0 89 0
-7 -47z m-415 -248 c0 -94 -6 -101 -54 -64 -24 19 -86 113 -86 131 0 10 29 16
88 17 l52 1 0 -85z m165 73 c11 -11 -43 -104 -75 -132 -53 -44 -60 -37 -60 60
l0 86 65 -4 c35 -2 67 -7 70 -10z"/>
<path d="M3872 1464 c-51 -36 -52 -42 -52 -489 0 -456 0 -459 60 -490 23 -12
72 -15 245 -15 224 0 244 3 277 44 16 19 18 59 18 464 l0 444 -31 29 -31 29
-232 0 c-194 0 -235 -3 -254 -16z m492 -35 c14 -11 26 -25 26 -30 0 -5 -109
-9 -265 -9 -156 0 -265 4 -265 9 0 5 12 19 26 30 25 20 39 21 239 21 200 0
214 -1 239 -21z m26 -419 l0 -340 -267 2 -268 3 -3 338 -2 337 270 0 270 0 0
-340z m0 -415 c0 -35 -6 -52 -25 -70 -24 -25 -24 -25 -238 -25 -201 0 -216 1
-240 20 -15 12 -29 36 -33 55 -12 67 -23 65 271 65 l265 0 0 -45z"/>
<path d="M1165 1385 c-22 -21 -25 -33 -25 -95 l0 -70 -55 0 -55 0 0 -105 0
-105 55 0 55 0 0 -124 0 -125 -52 -3 -53 -3 -3 -102 -3 -103 216 0 c137 0 215
4 215 10 0 6 46 10 119 10 104 0 121 2 144 20 24 19 26 28 29 103 l3 82 88 3
88 3 -3 102 -3 102 -85 5 -85 5 -5 192 c-3 105 -7 193 -10 196 -26 23 -68 27
-300 27 l-251 0 -24 -25z m549 -11 c13 -13 16 -46 16 -200 l0 -184 -115 0
c-108 0 -115 -1 -115 -20 0 -16 -7 -20 -34 -20 -19 0 -38 -4 -41 -10 -4 -6 10
-10 34 -10 l41 0 0 -75 0 -75 115 0 115 0 0 -80 c0 -107 -7 -112 -156 -108
l-109 3 -3 53 -3 52 95 0 c52 0 98 4 101 10 4 6 -30 10 -94 10 -94 0 -101 1
-101 20 0 19 -7 20 -150 20 l-150 0 0 125 0 125 150 0 c127 0 150 2 150 15 0
12 18 15 100 15 60 0 100 4 100 10 0 6 -40 10 -100 10 l-100 0 0 45 0 45 100
0 c60 0 100 4 100 10 0 6 -40 10 -100 10 l-100 0 0 25 0 25 -150 0 -150 0 0
67 c0 107 -12 103 286 103 216 0 255 -2 268 -16z m-274 -259 l0 -85 -195 0
-195 0 0 85 0 85 195 0 195 0 0 -85z m470 -230 l0 -85 -195 0 -195 0 0 85 0
85 195 0 195 0 0 -85z m-470 -235 l0 -90 -191 2 -191 3 1 83 c0 45 0 84 1 87
0 3 86 5 190 5 l190 0 0 -90z"/>
<path d="M2392 645 c-81 -35 -137 -105 -152 -186 -6 -34 -4 -41 12 -50 26 -14
39 0 62 63 18 50 70 104 109 113 19 5 23 13 23 41 -1 38 -6 40 -54 19z"/>
<path d="M2825 641 c-58 -26 -101 -65 -124 -114 -29 -60 -27 -72 10 -72 24 0
34 6 46 30 30 59 88 105 131 105 10 0 27 9 37 20 15 16 15 22 5 35 -17 20 -56
19 -105 -4z"/>
<path d="M2964 627 c0 -30 4 -36 32 -46 44 -16 101 -82 109 -125 9 -46 27 -61
54 -46 25 13 25 14 7 74 -25 81 -97 151 -176 171 -23 5 -25 3 -26 -28z"/>
<path d="M2683 408 c-6 -7 -13 -25 -16 -39 -11 -45 -51 -93 -99 -119 -34 -19
-45 -29 -38 -39 4 -8 6 -20 3 -28 -18 -45 113 23 156 81 38 54 60 134 40 147
-20 12 -35 11 -46 -3z"/>
<path d="M2285 370 c-4 -6 -15 -8 -26 -5 -25 8 -24 -8 2 -62 28 -58 92 -110
158 -130 51 -14 55 -14 67 2 20 27 2 49 -50 63 -53 14 -114 70 -123 113 -6 30
-17 37 -28 19z"/>
<path d="M3095 343 c-9 -20 -23 -46 -33 -56 -21 -24 -85 -57 -109 -57 -27 0
-44 -32 -28 -53 22 -31 111 -2 173 57 52 48 95 146 60 133 -7 -2 -21 0 -30 5
-14 7 -20 1 -33 -29z"/>
</g>
</svg>
